# xmcd
#
# Track frame offsets:
#	150
#	18672
#	37507
#	53115
#	72620
#	89560
#	111552
#	132400
#	150102
#	167832
#	182050
#	197130
#	219773
#
# Disc length: 3147 seconds
#
# Revision: 7
# Processed by: cddbd v1.5.2PL0 Copyright (c) Steve Scherf et al.
# Submitted via: EZCDAudioConverter 1.1.0.1
#
DISCID=b10c490d
DTITLE=Rihanna - Music of the Sun
DYEAR=2005
DGENRE=R&B
TTITLE0=Rihanna - Pon de Replay
TTITLE1=Rihanna featuring J-Status - Here I Go Again
TTITLE2=Rihanna - If It's Lovin' That You Want
TTITLE3=Rihanna featuring Vybz Kartel - You don't Love Me(No,No,No)
TTITLE4=Rihanna - That La,La,La
TTITLE5=Rihanna - The Last Time
TTITLE6=Rihanna - Willing to Wait
TTITLE7=Rihanna - Music of the Sun
TTITLE8=Rihanna - Let Me
TTITLE9=Rihanna featuring Kardinal Offishall - Rush
TTITLE10=Rihanna featuring Intro by J-Status - There's A Thug In My Life
TTITLE11=Rihanna - Now I Know
TTITLE12=Rihanna featuring Elephant Man - Pon de Replay (Remix)
EXTD=
EXTT0=
EXTT1=
EXTT2=
EXTT3=
EXTT4=
EXTT5=
EXTT6=
EXTT7=
EXTT8=
EXTT9=
EXTT10=
EXTT11=
EXTT12=
PLAYORDER=
